<svg width="71" height="71" viewBox="0 0 71 71" fill="none" xmlns="http://www.w3.org/2000/svg">
<path fill-rule="evenodd" clip-rule="evenodd" d="M35.5 19C36.1075 19 36.6 19.4925 36.6 20.1V24.5C36.6 25.1075 36.1075 25.6 35.5 25.6C34.8925 25.6 34.4 25.1075 34.4 24.5V20.1C34.4 19.4925 34.8925 19 35.5 19ZM23.8327 23.8327C24.2623 23.4032 24.9588 23.4032 25.3884 23.8327L28.4996 26.944C28.9292 27.3736 28.9292 28.0701 28.4996 28.4996C28.0701 28.9292 27.3736 28.9292 26.944 28.4996L23.8327 25.3884C23.4032 24.9588 23.4032 24.2623 23.8327 23.8327ZM20.1 34.4C19.4925 34.4 19 34.8925 19 35.5C19 36.1075 19.4925 36.6 20.1 36.6H24.5C25.1075 36.6 25.6 36.1075 25.6 35.5C25.6 34.8925 25.1075 34.4 24.5 34.4H20.1ZM23.8327 47.1673C23.4032 46.7376 23.4032 46.0413 23.8327 45.6116L26.944 42.5004C27.3736 42.0707 28.0701 42.0707 28.4996 42.5004C28.9292 42.9298 28.9292 43.6264 28.4996 44.056L25.3884 47.1673C24.9588 47.5969 24.2623 47.5969 23.8327 47.1673ZM46.5 34.4C45.8926 34.4 45.4 34.8925 45.4 35.5C45.4 36.1075 45.8926 36.6 46.5 36.6H50.9C51.5074 36.6 52 36.1075 52 35.5C52 34.8925 51.5074 34.4 50.9 34.4H46.5ZM42.5004 28.4996C42.0707 28.0701 42.0707 27.3736 42.5004 26.944L45.6116 23.8327C46.0413 23.4032 46.7376 23.4032 47.1673 23.8327C47.5969 24.2623 47.5969 24.9588 47.1673 25.3884L44.056 28.4996C43.6264 28.9292 42.9298 28.9292 42.5004 28.4996ZM36.6 46.5C36.6 45.8926 36.1075 45.4 35.5 45.4C34.8925 45.4 34.4 45.8926 34.4 46.5V50.9C34.4 51.5074 34.8925 52 35.5 52C36.1075 52 36.6 51.5074 36.6 50.9V46.5ZM42.5004 42.5004C42.9298 42.0707 43.6264 42.0707 44.056 42.5004L47.1673 45.6116C47.5969 46.0413 47.5969 46.7376 47.1673 47.1673C46.7376 47.5969 46.0413 47.5969 45.6116 47.1673L42.5004 44.056C42.0707 43.6264 42.0707 42.9298 42.5004 42.5004ZM31.1 35.5C31.1 33.0699 33.0699 31.1 35.5 31.1C37.9301 31.1 39.9 33.0699 39.9 35.5C39.9 37.9301 37.9301 39.9 35.5 39.9C33.0699 39.9 31.1 37.9301 31.1 35.5ZM35.5 28.9C31.8549 28.9 28.9 31.8549 28.9 35.5C28.9 39.1451 31.8549 42.1 35.5 42.1C39.1451 42.1 42.1 39.1451 42.1 35.5C42.1 31.8549 39.1451 28.9 35.5 28.9Z" fill="#E3E3E3"/>
<circle cx="35.5" cy="35.5" r="35.5" fill="#D9D9D9" fill-opacity="0.2"/>
</svg>
