<svg width="71" height="71" viewBox="0 0 71 71" fill="none" xmlns="http://www.w3.org/2000/svg">
<path fill-rule="evenodd" clip-rule="evenodd" d="M27.2622 24.1999C22.6853 30.0293 19.4065 38.7615 20.0903 43.2993C20.875 48.5073 24.5139 52.2542 29.4135 52.9006C37.5194 53.9695 43.2279 46.264 40.9829 37.2851C39.8825 32.8821 33.1664 21.711 31.2058 21.0222C30.5815 20.8028 28.8074 22.2325 27.2622 24.1999ZM42.9314 23.4307C42.9314 24.4443 43.8835 25.0603 45.4529 25.0603C47.0222 25.0603 47.9743 25.6762 47.9743 26.6898C47.9743 27.5861 47.2935 28.3194 46.4614 28.3194C45.6294 28.3194 44.9486 29.0527 44.9486 29.9489C44.9486 30.8452 45.6294 31.5785 46.4614 31.5785C47.2935 31.5785 47.9743 32.3118 47.9743 33.208C47.9743 34.2216 47.0222 34.8376 45.4529 34.8376C43.8835 34.8376 42.9314 35.4535 42.9314 36.4671C42.9314 37.4807 43.8835 38.0967 45.4529 38.0967C47.0222 38.0967 47.9743 38.7126 47.9743 39.7262C47.9743 40.6225 47.2935 41.3558 46.4614 41.3558C45.6294 41.3558 44.9486 42.089 44.9486 42.9853C44.9486 43.8816 45.6294 44.6148 46.4614 44.6148C47.2935 44.6148 47.9743 45.3481 47.9743 46.2444C47.9743 47.258 47.0222 47.8739 45.4529 47.8739C43.8835 47.8739 42.9314 48.4899 42.9314 49.5035C42.9314 50.68 44.0519 51.133 46.9657 51.133H51V36.4671V21.8012H46.9657C44.0519 21.8012 42.9314 22.2542 42.9314 23.4307ZM33.8482 29.5687C38.1377 35.9478 37.8603 37.0103 31.9047 37.0103C27.816 37.0103 26.8165 37.397 26.29 39.183C25.4055 42.1857 26.5986 45.8881 29.1705 48.1216C31.0938 49.7903 31.1321 50.0011 29.5225 50.0228C26.8528 50.0586 22.76 45.1385 22.76 41.8946C22.76 40.3433 23.4872 37.5111 24.3767 35.598C26.0257 32.0521 30.1256 25.0809 30.5704 25.0679C30.7055 25.0635 32.18 27.0896 33.8482 29.5687Z" fill="white" fill-opacity="0.7"/>
<circle cx="35.5" cy="35.5" r="35.5" fill="#D9D9D9" fill-opacity="0.2"/>
</svg>
